<svg width="267" height="66" viewBox="0 0 267 66" fill="none" xmlns="http://www.w3.org/2000/svg">
<path fill-rule="evenodd" clip-rule="evenodd" d="M258 58.6667L238.5 53C238.5 53 234.5 55.9762 220.375 58.6667C206.25 61.3571 169 58.6667 169 58.6667C169 58.6667 201.863 59.9608 217.473 53.9216C233.083 47.8824 249.541 32.5686 220.375 25.2353L202.5 21.5H226L235.548 0L244.5 21.5H266.5L250.5 38.5L258 58.6667Z" fill="url(#paint0_radial_4_17)"/>
<path d="M222.685 28.2409C222.103 28.0241 221.756 27.9068 221.756 27.9068C221.756 27.9068 222.111 28.0147 222.685 28.2409C225.944 29.4569 236.568 33.8007 234.619 38.1057C232.324 43.1781 221.756 49.3645 221.756 49.3645C221.756 49.3645 232.892 42.2907 231.318 36.3158C230.076 31.5992 224.836 29.089 222.685 28.2409Z" fill="url(#paint1_linear_4_17)"/>
<path d="M0.328 55L15.16 21.4H24.52L39.4 55H29.512L17.896 26.056H21.64L10.024 55H0.328ZM8.44 48.472L10.888 41.464H27.304L29.752 48.472H8.44ZM56.8953 55.672C51.9353 55.672 48.0633 54.312 45.2793 51.592C42.4953 48.872 41.1033 45.016 41.1033 40.024V21.4H50.6073V39.736C50.6073 42.616 51.1673 44.68 52.2873 45.928C53.4393 47.176 55.0073 47.8 56.9913 47.8C58.9753 47.8 60.5273 47.176 61.6473 45.928C62.7673 44.68 63.3273 42.616 63.3273 39.736V21.4H72.6873V40.024C72.6873 45.016 71.2953 48.872 68.5113 51.592C65.7273 54.312 61.8553 55.672 56.8953 55.672ZM79.1256 55V21.4H94.4856C97.5576 21.4 100.198 21.896 102.406 22.888C104.646 23.88 106.374 25.32 107.59 27.208C108.806 29.064 109.414 31.272 109.414 33.832C109.414 36.36 108.806 38.552 107.59 40.408C106.374 42.232 104.646 43.64 102.406 44.632C100.198 45.592 97.5576 46.072 94.4856 46.072H84.4056L88.6296 42.088V55H79.1256ZM99.9096 55L91.5576 42.76H101.686L110.086 55H99.9096ZM88.6296 43.096L84.4056 38.728H93.9096C95.8936 38.728 97.3656 38.296 98.3256 37.432C99.3176 36.568 99.8136 35.368 99.8136 33.832C99.8136 32.264 99.3176 31.048 98.3256 30.184C97.3656 29.32 95.8936 28.888 93.9096 28.888H84.4056L88.6296 24.52V43.096ZM131.601 55.672C128.913 55.672 126.433 55.24 124.161 54.376C121.889 53.512 119.905 52.296 118.209 50.728C116.545 49.128 115.249 47.272 114.321 45.16C113.393 43.048 112.929 40.728 112.929 38.2C112.929 35.672 113.393 33.352 114.321 31.24C115.249 29.128 116.545 27.288 118.209 25.72C119.905 24.12 121.889 22.888 124.161 22.024C126.433 21.16 128.913 20.728 131.601 20.728C134.321 20.728 136.801 21.16 139.041 22.024C141.313 22.888 143.281 24.12 144.945 25.72C146.609 27.288 147.905 29.128 148.833 31.24C149.793 33.352 150.273 35.672 150.273 38.2C150.273 40.728 149.793 43.064 148.833 45.208C147.905 47.32 146.609 49.16 144.945 50.728C143.281 52.296 141.313 53.512 139.041 54.376C136.801 55.24 134.321 55.672 131.601 55.672ZM131.601 47.8C132.881 47.8 134.065 47.576 135.153 47.128C136.273 46.68 137.233 46.04 138.033 45.208C138.865 44.344 139.505 43.32 139.953 42.136C140.433 40.952 140.673 39.64 140.673 38.2C140.673 36.728 140.433 35.416 139.953 34.264C139.505 33.08 138.865 32.072 138.033 31.24C137.233 30.376 136.273 29.72 135.153 29.272C134.065 28.824 132.881 28.6 131.601 28.6C130.321 28.6 129.121 28.824 128.001 29.272C126.913 29.72 125.953 30.376 125.121 31.24C124.321 32.072 123.681 33.08 123.201 34.264C122.753 35.416 122.529 36.728 122.529 38.2C122.529 39.64 122.753 40.952 123.201 42.136C123.681 43.32 124.321 44.344 125.121 45.208C125.953 46.04 126.913 46.68 128.001 47.128C129.121 47.576 130.321 47.8 131.601 47.8ZM155.251 55V21.4H170.611C173.683 21.4 176.323 21.896 178.531 22.888C180.771 23.88 182.499 25.32 183.715 27.208C184.931 29.064 185.539 31.272 185.539 33.832C185.539 36.36 184.931 38.552 183.715 40.408C182.499 42.232 180.771 43.64 178.531 44.632C176.323 45.592 173.683 46.072 170.611 46.072H160.531L164.755 42.088V55H155.251ZM176.035 55L167.683 42.76H177.811L186.211 55H176.035ZM164.755 43.096L160.531 38.728H170.035C172.019 38.728 173.491 38.296 174.451 37.432C175.443 36.568 175.939 35.368 175.939 33.832C175.939 32.264 175.443 31.048 174.451 30.184C173.491 29.32 172.019 28.888 170.035 28.888H160.531L164.755 24.52V43.096ZM186.75 55L201.582 21.4H210.942L225.822 55H215.934L204.318 26.056H208.062L196.446 55H186.75ZM194.862 48.472L197.31 41.464H213.726L216.174 48.472H194.862Z" fill="url(#paint2_linear_4_17)"/>
<defs>
<radialGradient id="paint0_radial_4_17" cx="0" cy="0" r="1" gradientTransform="matrix(71.5 -32 51.9796 118.601 209 56.5)" gradientUnits="userSpaceOnUse">
<stop stop-color="#E68AFD"/>
<stop offset="1" stop-color="#9A3CFF"/>
</radialGradient>
<linearGradient id="paint1_linear_4_17" x1="234.442" y1="37.16" x2="271.448" y2="38.2943" gradientUnits="userSpaceOnUse">
<stop stop-color="#BC61FA"/>
<stop offset="1" stop-color="#AA42FF"/>
</linearGradient>
<linearGradient id="paint2_linear_4_17" x1="273.5" y1="37" x2="-2.97671" y2="33.0434" gradientUnits="userSpaceOnUse">
<stop stop-color="#E68AFD"/>
<stop offset="1" stop-color="#AA42FF"/>
</linearGradient>
</defs>
</svg>
